<svg xmlns="http://www.w3.org/2000/svg" width="86" height="59" viewBox="0 0 86 59"><defs><style>.a{isolation:isolate;}.b{fill:#fbba3d;}.c{fill:#07c647;}.d{fill:#7effac;}.e{fill:#e1e1e1;}.f{fill:#00bcf3;}.g{fill:#44544a;}.h{fill:#cbff00;}.i{fill:#00ff5a;}.j{fill:#0ef;}.k{fill:#cab570;}.l{fill:#fff;font-size:21px;font-family:SegoeUI, Segoe UI;}</style></defs><g class="a" transform="translate(18.62 3)"><path class="b" d="M41.9,38.74a1.092,1.092,0,0,1-.958-.546l-5.888-10.21a3.234,3.234,0,0,1,1.916-4.729l1.5-.431a3.234,3.234,0,0,1,4.125,3l.4,11.786a1.092,1.092,0,0,1-.791,1.088h0A1.1,1.1,0,0,1,41.9,38.74Zm.172-.565ZM39.37,23.657a2.29,2.29,0,0,0-.632.091l-1.5.431A2.276,2.276,0,0,0,35.892,27.5L41.79,37.7a.134.134,0,0,0,.249-.072l-.4-11.786a2.281,2.281,0,0,0-2.271-2.2Z" transform="translate(-21.207 -13.933)"/><path class="b" d="M35.964,32.5a.483.483,0,0,1-.129-.958l1.38-.4a.479.479,0,1,1,.264.92L36.1,32.5A.479.479,0,0,1,35.964,32.5Z" transform="translate(-21.619 -18.317)"/><path class="b" d="M45.4,32.8a.483.483,0,1,1-.129-.958l1.845-.527a.479.479,0,0,1,.264.92l-1.845.527A.479.479,0,0,1,45.4,32.8Z" transform="translate(-26.537 -18.416)"/><path class="b" d="M39.814,38.728a.483.483,0,1,1-.129-.958l1.37-.379a.479.479,0,1,1,.264.92l-1.38.4A.48.48,0,0,1,39.814,38.728Z" transform="translate(-23.625 -21.573)"/><path class="b" d="M43.4,43.917a.483.483,0,1,1-.129-.958l1.38-.4a.479.479,0,1,1,.264.92l-1.38.4A.479.479,0,0,1,43.4,43.917Z" transform="translate(-25.495 -24.266)"/><path class="c" d="M40.878,17.368a.479.479,0,0,1-.4-.22.479.479,0,0,1-.886-.216c-.048-.81-.11-1.61-.177-2.367C39.235,12.6,39,11,39,10.976a.479.479,0,0,1,.786-.431,6.378,6.378,0,0,1,2.07,3.795,5.409,5.409,0,0,1-.546,2.765A.479.479,0,0,1,40.878,17.368Zm-.723-4.94c.067.58.144,1.284.211,2.036.057.656.115,1.342.158,2.041a4.35,4.35,0,0,0,.393-2.089A4.417,4.417,0,0,0,40.155,12.428Z" transform="translate(-23.486 -7.543)"/><path class="c" d="M36.552,18.537a.479.479,0,0,1-.264-.077A5.419,5.419,0,0,1,34.372,16.4a6.49,6.49,0,0,1-.254-4.312.49.49,0,0,1,.91-.053s.666,1.5,1.552,3.258c.34.671.7,1.365,1.083,2.065a.479.479,0,0,1-.594.676.479.479,0,0,1-.479.508Zm-1.758-4.652a4.418,4.418,0,0,0,.417,2.079,4.35,4.35,0,0,0,1.437,1.572c-.331-.613-.647-1.222-.958-1.816C35.364,15.049,35.043,14.412,34.794,13.885Z" transform="translate(-20.808 -8.228)"/><path class="d" d="M22.418,18.1a.479.479,0,0,1-.192-.038c-.139-.062-3.464-1.538-4.245-4.374S19.3,7.885,19.39,7.785a.479.479,0,0,1,.58-.158c.139.062,3.464,1.538,4.245,4.374h0c.781,2.836-1.318,5.807-1.409,5.931A.479.479,0,0,1,22.418,18.1ZM19.95,8.661c-.479.8-1.567,2.875-1.044,4.791s2.515,3.129,3.354,3.569c.479-.8,1.567-2.875,1.044-4.791h0C22.772,10.333,20.774,9.1,19.95,8.661Z" transform="translate(-12.447 -6.061)"/><path class="d" d="M26.734,26.157a.479.479,0,0,1-.393-.206l-.326-.479a26.735,26.735,0,0,1-3.972-8.72L21.9,16.2a.479.479,0,1,1,.929-.235l.139.551a25.781,25.781,0,0,0,3.833,8.413l.326.479a.479.479,0,0,1-.4.747Z" transform="translate(-14.574 -10.238)"/><path class="e" d="M63.722,39.992a.479.479,0,0,1-.407-.225l-.776-1.241L58.3,37.96a.479.479,0,0,1-.182-.886l3.459-2.036c-.216-2.822-.091-6.612,1.615-9.257,2.961-4.6,10.167-5.093,10.469-5.112a.479.479,0,0,1,.479.307c.11.287,2.64,7.048-.321,11.647-1.754,2.731-5.337,4.441-8.006,5.39a.479.479,0,0,1-.321-.9c2.539-.9,5.908-2.5,7.522-5.007,2.348-3.646.814-9.046.35-10.445-1.466.163-7.024,1-9.367,4.643-1.619,2.515-1.677,6.257-1.437,8.955a.479.479,0,0,1-.235.455L59.8,37.2l3.086.412a.479.479,0,0,1,.345.22l.9,1.437a.479.479,0,0,1-.407.719Z" transform="translate(-33.322 -12.875)"/><path class="e" d="M73.171,57.836h-.048a.479.479,0,0,1-.426-.527l.2-1.95a.482.482,0,0,1,.958.1l-.2,1.95A.479.479,0,0,1,73.171,57.836Z" transform="translate(-41.037 -30.719)"/><path class="f" d="M70.743,39.347h-.034a.479.479,0,0,1-.45-.508,12.242,12.242,0,0,1,1.653-5.845.479.479,0,0,1,.8.517,11.247,11.247,0,0,0-1.5,5.39A.479.479,0,0,1,70.743,39.347Z" transform="translate(-39.768 -19.192)"/><path class="f" d="M83.015,32.348a.479.479,0,0,1-.177-.034l-1.394-.561a19.394,19.394,0,0,1-6.128-3.948l-1.088-1.035a.48.48,0,0,1,.661-.695l1.068,1.035A18.441,18.441,0,0,0,81.8,30.863l1.394.561a.479.479,0,0,1-.177.925Z" transform="translate(-41.758 -15.624)"/><circle class="g" cx="0.719" cy="0.719" r="0.719" transform="matrix(0.541, -0.841, 0.841, 0.541, 35.689, 11.566)"/><path class="h" d="M56.95,17.985a.48.48,0,0,1-.062-.958c1.658-.22,3.229-1.849,3.833-3.958a5.816,5.816,0,0,0-.762-4.954.479.479,0,0,1-.1-.292,1.044,1.044,0,0,1,.163-.513,1,1,0,0,0,.067-.134,1.442,1.442,0,0,0-2.075-1.648,1.356,1.356,0,0,0-.676.838,2.1,2.1,0,0,0-.043.24.479.479,0,0,1-.379.479,5.561,5.561,0,0,0-3.354,3.929c-.608,2.175-.1,4.422,1.246,5.467a.48.48,0,0,1-.589.757c-1.643-1.279-2.295-3.943-1.581-6.482a6.657,6.657,0,0,1,3.756-4.5.208.208,0,0,1,.034-.139,2.3,2.3,0,0,1,1.121-1.428,2.4,2.4,0,0,1,3.234.958A2.367,2.367,0,0,1,61,7.459a1.509,1.509,0,0,1-.134.311,6.784,6.784,0,0,1,.767,5.543c-.7,2.506-2.559,4.374-4.619,4.647Z" transform="translate(-30.441 -4.404)"/><path class="h" d="M57.093,32.508a1.845,1.845,0,0,1-1.49-2.947.479.479,0,1,1,.767.575.886.886,0,1,0,1.591.479.479.479,0,1,1,.944-.158v.086a1.826,1.826,0,0,1-.062.637A1.845,1.845,0,0,1,57.093,32.508Z" transform="translate(-31.944 -17.408)"/><path class="h" d="M56.767,19.28a.479.479,0,0,1-.479-.383,7.57,7.57,0,0,1,1.744-6.329.48.48,0,1,1,.714.642,6.617,6.617,0,0,0-1.509,5.5.479.479,0,0,1-.379.565Z" transform="translate(-32.428 -8.573)"/><path class="i" d="M14.818,38.26a.479.479,0,0,1-.479-.379,2.966,2.966,0,1,1,5.864-.829.48.48,0,0,1-.958.062,2.008,2.008,0,1,0-3.962.561.479.479,0,0,1-.364.57Z" transform="translate(-10.612 -19.998)"/><path class="i" d="M7.708,44.958a.479.479,0,0,1-.364-.163,2.966,2.966,0,0,1,3.684-4.532.483.483,0,1,1-.479.838,2.008,2.008,0,0,0-2.491,3.066.479.479,0,0,1-.359.8Z" transform="translate(-6.62 -22.887)"/><path class="i" d="M9.937,53.249A2.966,2.966,0,0,1,7.5,48.6a.479.479,0,1,1,.786.527,2.008,2.008,0,1,0,3.637,1.394.483.483,0,1,1,.958.12A2.966,2.966,0,0,1,9.941,53.23Z" transform="translate(-6.803 -27.278)"/><path class="i" d="M26.609,42.272h-.244a.482.482,0,1,1,.1-.958,1.379,1.379,0,1,0-.906-2.233.479.479,0,0,1-.752-.594,2.324,2.324,0,1,1,1.821,3.771Z" transform="translate(-16.04 -21.7)"/><path class="i" d="M14.165,48.491a2.324,2.324,0,0,1-2.146-1.437.481.481,0,0,1,.886-.374,1.365,1.365,0,0,0,2.4.235.48.48,0,0,1,.8.532,2.324,2.324,0,0,1-1.936,1.044Z" transform="translate(-9.413 -26.272)"/><path class="i" d="M20.3,56.369a.479.479,0,0,1-.383-.192l-2.5-3.282a.479.479,0,1,1,.762-.58l2.5,3.282a.479.479,0,0,1-.378.767Z" transform="translate(-12.187 -29.253)"/><path class="i" d="M27.855,52.866a.479.479,0,0,1-.22-.9l1.346-.68L27.371,46.1a.479.479,0,0,1,.915-.283l1.734,5.567a.479.479,0,0,1-.24.57l-1.71.862A.479.479,0,0,1,27.855,52.866Z" transform="translate(-17.42 -25.807)"/><path class="i" d="M25.771,55.67a.479.479,0,0,1-.426-.264L23.4,51.574a.48.48,0,1,1,.858-.431l1.94,3.833a.479.479,0,0,1-.426.695Z" transform="translate(-15.336 -28.611)"/><path class="j" d="M78.34,12.68a1.84,1.84,0,1,1,1.84-1.84A1.84,1.84,0,0,1,78.34,12.68Zm0-2.721a.882.882,0,1,0,.882.882A.882.882,0,0,0,78.34,9.958Z" transform="translate(-43.019 -6.798)"/><path class="j" d="M56.89,43.16a1.84,1.84,0,1,1,1.84-1.84A1.84,1.84,0,0,1,56.89,43.16Zm0-2.721a.882.882,0,1,0,.882.882A.882.882,0,0,0,56.89,40.438Z" transform="translate(-31.846 -22.674)"/><path class="j" d="M36.72,51.27a1.84,1.84,0,1,1,1.84-1.84A1.84,1.84,0,0,1,36.72,51.27Zm0-2.721a.882.882,0,1,0,.882.882A.882.882,0,0,0,36.72,48.548Z" transform="translate(-21.34 -26.898)"/><path class="j" d="M11.145,28.38a1.845,1.845,0,1,1,1.309-.535A1.84,1.84,0,0,1,11.145,28.38Zm0-2.721a.882.882,0,1,0,.633.253A.882.882,0,0,0,11.145,25.658Z" transform="translate(-8.027 -14.976)"/><path class="k" d="M31.769,74.332h0C21.895,74.332,15,68.223,15,59.479A.479.479,0,0,1,15.479,59h32.58a.479.479,0,0,1,.479.479C48.538,68.223,41.644,74.332,31.769,74.332ZM15.958,59.958C16.2,68,22.489,73.374,31.769,73.374h0c9.276,0,15.562-5.371,15.811-13.415Z" transform="translate(-10.985 -32.842)"/><path class="k" d="M24.617,70.359a.479.479,0,0,1-.4-.216q-.249-.379-.479-.776a.481.481,0,1,1,.834-.479q.211.369.446.723a.479.479,0,0,1-.4.743Z" transform="translate(-15.505 -37.867)"/><path class="k" d="M31.688,77.4a.479.479,0,0,1-.216-.053,9.6,9.6,0,0,1-.958-.541c-.292-.192-.762-.479-1.121-.738a14.34,14.34,0,0,1-1.744-1.485l-.168-.168a4.157,4.157,0,0,1-.364-.393.479.479,0,1,1,.733-.618,3.385,3.385,0,0,0,.3.321l.182.177a13.38,13.38,0,0,0,1.624,1.385c.335.244.69.479,1.049.69s.608.35.925.508a.479.479,0,0,1-.216.906Z" transform="translate(-17.238 -40.256)"/><path class="k" d="M48.1,65.958H16.479a.479.479,0,1,1,0-.958H48.1a.479.479,0,0,1,0,.958Z" transform="translate(-11.506 -35.967)"/></g><text class="l" transform="translate(0 54)"><tspan x="0" y="0">FoodApp</tspan></text></svg>