<svg xmlns="http://www.w3.org/2000/svg" width="26.35" height="15.875" viewBox="0 0 26.35 15.875"><g transform="translate(0)"><path d="M-233.518,30.01a7.787,7.787,0,0,0-7.782,7.776,7.79,7.79,0,0,0,7.782,7.779h10.475a7.793,7.793,0,0,0,7.782-7.782A7.793,7.793,0,0,0-223.043,30h-10.475Z" transform="translate(241.459 -29.851)" fill="#fff"/><path d="M-227.881,41.175h-10.478a7.95,7.95,0,0,1-7.941-7.941,7.945,7.945,0,0,1,7.941-7.935h10.475a7.943,7.943,0,0,1,7.935,7.935,7.942,7.942,0,0,1-7.931,7.941m-10.478-15.717a7.787,7.787,0,0,0-7.782,7.776,7.79,7.79,0,0,0,7.782,7.779h10.475a7.793,7.793,0,0,0,7.782-7.782,7.793,7.793,0,0,0-7.782-7.782h-10.475Z" transform="translate(246.3 -25.3)"/><path d="M391.4,157.762l3.483,4.147a6.45,6.45,0,0,0-.127-7.509Z" transform="translate(-371.152 -150.301)" fill="#e31f28"/><path d="M-143.556,73.873c2.6,0,4.563.664,4.766,2.854l2.737-2.854h5.455A6.447,6.447,0,0,0-135.51,71.6h-10.478a6.432,6.432,0,0,0-4.912,2.273Z" transform="translate(153.929 -70.13)" fill="#e31f28"/><path d="M-82.87,230.3l-.93,2.553h3.75a1.5,1.5,0,0,0,1.692-1.343c.248-.876-.371-1.21-1.127-1.21Z" transform="translate(88.959 -223.791)" fill="#e31f28"/><path d="M-140.579,290.258l-2.9-3.658c-.537,2.5-2.289,3.658-5.575,3.658h-6.55a6.452,6.452,0,0,0,5.061,2.442h10.475a6.459,6.459,0,0,0,5.055-2.442Z" transform="translate(158.48 -278.303)" fill="#e31f28"/></g></svg>