<svg xmlns="http://www.w3.org/2000/svg" width="16.53" height="17.699" viewBox="0 0 16.53 17.699"><path d="M6.664,17.7a1.5,1.5,0,0,1-1.383-.924L.116,4.311A1.5,1.5,0,0,1,.925,2.357L6.335.117A1.495,1.495,0,0,1,8.288.926l5.165,12.468a1.5,1.5,0,0,1-.809,1.953L7.234,17.588A1.488,1.488,0,0,1,6.664,17.7ZM6.907.808a.688.688,0,0,0-.264.053L1.233,3.1A.69.69,0,0,0,.86,4L6.024,16.471a.691.691,0,0,0,.9.374L12.335,14.6h0a.69.69,0,0,0,.373-.9L7.544,1.234A.691.691,0,0,0,6.907.808Z" transform="translate(-0.002 -0.003)" fill="#90a4ff"/><rect width="0.805" height="5.343" transform="translate(7.883 2.053) rotate(-22.5)" fill="#90a4ff" opacity="0.7"/><rect width="0.805" height="6.049" transform="translate(13.107 12.562) rotate(157.5)" fill="#90a4ff" opacity="0.7"/><path d="M27.531,18.085a9.126,9.126,0,0,0-3.684,2.592L21.666,15.41a9.208,9.208,0,0,1,3.684-2.592,8.867,8.867,0,0,1,4.438-.771l2.181,5.266A9.2,9.2,0,0,0,27.531,18.085Z" transform="translate(-16.107 -8.919)" fill="#90a4ff"/><g transform="translate(5.559 3.077)" opacity="0.4"><path d="M6.531,7.085A9.126,9.126,0,0,0,2.847,9.676L.666,4.41A9.208,9.208,0,0,1,4.35,1.818a8.867,8.867,0,0,1,4.438-.771l2.181,5.266A9.2,9.2,0,0,0,6.531,7.085Z" transform="translate(-0.666 -0.996)" fill="#90a4ff" opacity="0.9"/><path d="M6.531,7.085A9.126,9.126,0,0,0,2.847,9.676L.666,4.41A9.208,9.208,0,0,1,4.35,1.818a8.867,8.867,0,0,1,4.438-.771l2.181,5.266A9.2,9.2,0,0,0,6.531,7.085Z" transform="translate(-0.666 -0.996)" fill="#90a4ff" opacity="0.7"/></g><path d="M34.558,26.544a9.122,9.122,0,0,0-4.4.984V22.2a9.208,9.208,0,0,1,4.4-.984,8.88,8.88,0,0,1,4.4.985V27.53A9.2,9.2,0,0,0,34.558,26.544Z" transform="translate(-22.423 -15.773)" fill="#90a4ff"/></svg>