<svg xmlns="http://www.w3.org/2000/svg" width="29.757" height="29.757" viewBox="0 0 29.757 29.757"><g transform="translate(2.324 2.321)"><path d="M174.475,42.652a8.733,8.733,0,0,1,10.5-1.65.581.581,0,0,1-.565,1.016,7.556,7.556,0,1,0,3.028,3.027.581.581,0,0,1,1.019-.56c.036.065.1.186.16.309h0a8.72,8.72,0,1,1-14.138-2.142Z" transform="translate(-172.081 -39.94)"/></g><g transform="translate(0 0)"><path d="M3.229,3.229A11.045,11.045,0,0,1,19.984,17.518L21.8,19.329a1.744,1.744,0,0,1,1.985.341L28.9,24.795a2.906,2.906,0,1,1-4.11,4.11L19.67,23.781a1.744,1.744,0,0,1-.341-1.985l-1.811-1.812A11.045,11.045,0,0,1,3.229,3.229ZM20.492,22.959l5.125,5.124a1.743,1.743,0,0,0,2.466-2.466l-5.124-5.125a.582.582,0,0,0-.822,0l-1.644,1.644A.582.582,0,0,0,20.492,22.959ZM20.081,20.9l.822-.822-1.655-1.655c-.13.144-.263.285-.4.422s-.278.27-.422.4ZM4.051,18.026a9.882,9.882,0,1,0,0-13.975A9.866,9.866,0,0,0,4.051,18.026Z" transform="translate(0 0)"/></g><g transform="translate(16.212 4.703)"><g transform="translate(0)"><path d="M213.208,81.107l.014-.015a.582.582,0,0,1,.823.823l-.015.015a.581.581,0,0,1-.821-.822Z" transform="translate(-213.052 -80.922)"/></g></g></svg>